<svg xmlns="http://www.w3.org/2000/svg" xmlns:xlink="http://www.w3.org/1999/xlink" version="1.1" viewBox="0 0 16 16" style="opacity: 1; box-shadow: none; border-radius: 0px;" preserveAspectRatio="xMidYMid meet" fill="#858d9b" fill-opacity="1" width="16" height="16">
<path fill="" d="M14.5 0h-13c-0.825 0-1.5 0.675-1.5 1.5v9c0 0.825 0.675 1.5 1.5 1.5h2.5v4l4.8-4h5.7c0.825 0 1.5-0.675 1.5-1.5v-9c0-0.825-0.675-1.5-1.5-1.5zM5 3c0.552 0 1 0.448 1 1s-0.448 1-1 1-1-0.448-1-1 0.448-1 1-1zM8 10c-1.864 0-3.43-1.275-3.874-3h7.748c-0.444 1.725-2.010 3-3.874 3zM11 5c-0.552 0-1-0.448-1-1s0.448-1 1-1 1 0.448 1 1-0.448 1-1 1z" style="undefined" fill-opacity=""/>
</svg>