<svg xmlns="http://www.w3.org/2000/svg" xmlns:xlink="http://www.w3.org/1999/xlink" version="1.1" viewBox="0 0 16 16" style="box-shadow: none; border-radius: 0px; opacity: 1;" preserveAspectRatio="xMidYMid meet" fill="#858d9b" fill-opacity="1" width="16" height="16">
<path fill="" d="M16 4.5v-4l-15.5 15.5h4v-1h0.5v1h1.5v-2h0.5v2h1.5v-1h0.5v1h1.5v-2h0.5v2h1.5v-1h0.5v1h3v-3h-1v-0.5h1v-1.5h-2v-0.5h2v-1.5h-1v-0.5h1v-1.5h-2v-0.5h2v-1.5h-1v-0.5h1zM13 13h-5.5l5.5-5.5v5.5z" style="undefined" fill-opacity=""/>
<path fill="" d="M9.5 0l-8 8-1.5 4 4-1.5 8-8c0-1.5-1-2.5-2.5-2.5zM3.5 9l-1-1 7-7 1 1-7 7z" style="undefined" fill-opacity=""/>
</svg>