<svg xmlns="http://www.w3.org/2000/svg" xmlns:xlink="http://www.w3.org/1999/xlink" version="1.1" viewBox="0 2 16 12.769342422485352" style="opacity: 1; box-shadow: none; border-radius: 0px;" preserveAspectRatio="xMidYMid meet" fill="#858d9b" fill-opacity="1" width="16" height="16">
<path fill="" d="M8.048 2c-5.142 0-8.048 3.417-8.048 5.917 0 3.809 3.417 5.952 6.26 6.655s3.912-0.586 3.866-2.072c-0.055-1.805 0.846-1.828 1.485-1.764s4.389 0.93 4.389-1.944c0-3.557-2.81-6.791-7.952-6.791zM7 3c0.552 0 1 0.448 1 1s-0.448 1-1 1-1-0.448-1-1 0.448-1 1-1zM2.5 9.008c-0.28 0-0.508-0.227-0.508-0.508s0.227-0.508 0.508-0.508 0.508 0.227 0.508 0.508-0.227 0.508-0.508 0.508zM4 7c-0.552 0-1-0.448-1-1s0.448-1 1-1 1 0.448 1 1-0.448 1-1 1zM8 11c-1.105 0-2-0.672-2-1.5s0.895-1.5 2-1.5c1.105 0 2 0.672 2 1.5s-0.895 1.5-2 1.5zM11.5 7c-0.828 0-1.5-0.672-1.5-1.5s0.672-1.5 1.5-1.5 1.5 0.672 1.5 1.5-0.672 1.5-1.5 1.5z" style="undefined" fill-opacity=""/>
</svg>