<svg xmlns="http://www.w3.org/2000/svg" xmlns:xlink="http://www.w3.org/1999/xlink" version="1.1" viewBox="0 0 16 16" style="opacity: 1; box-shadow: none; border-radius: 0px;" preserveAspectRatio="xMidYMid meet" fill="#858d9b" fill-opacity="1" width="16" height="16">
<path fill="" d="M13 5.5c0 0.828-0.672 1.5-1.5 1.5s-1.5-0.672-1.5-1.5c0-0.828 0.672-1.5 1.5-1.5s1.5 0.672 1.5 1.5z" style="undefined" fill-opacity=""/>
<path fill="" d="M0 3v10c0 0.55 0.45 1 1 1h6v-1h-5.998c-0.001-0.001-0.001-0.001-0.002-0.002v-9.996c0.001-0.001 0.001-0.001 0.002-0.002h5.998v-1h-6c-0.55 0-1 0.45-1 1z" style="undefined" fill-opacity=""/>
<path fill="" d="M15 2h-6v-2h-1v16h1v-2h6c0.55 0 1-0.45 1-1v-10c0-0.55-0.45-1-1-1zM15 12.998c-0.001 0.001-0.001 0.001-0.002 0.002h-5.998v-1h5v-5l-3.5 3h-1l-0.5-0.625v-6.375h5.998c0.001 0.001 0.001 0.001 0.002 0.002v9.996z" style="undefined" fill-opacity=""/>
<path fill="" d="M2 11v1h5v-5.125l-1.5-1.875z" style="undefined" fill-opacity=""/>
</svg>