<svg xmlns="http://www.w3.org/2000/svg" viewBox="0 0 348.84 373.22"><defs><style>.cls-1{fill:#fff;}</style></defs><title>Asset 1</title><g id="Layer_2" data-name="Layer 2"><g id="Layer_2-2" data-name="Layer 2"><path class="cls-1" d="M196.16,373.22H153.39l18.72-129.39h5.33Zm-37-5h31.23L174.77,260.33Z"/><path class="cls-1" d="M174.8,221.45,106.56,56.26,174.79,0l67,56.26ZM112.6,57.76l62.15,150.49,61.08-150.5L174.76,6.5Z"/><path class="cls-1" d="M182.58,225.6,279,93l69.84,19.26v76ZM281,98.77,194.42,217.82l149.42-33.56V116.1Z"/><path class="cls-1" d="M266.61,334.89l-82-99.34,135-1.06,21.79,73.65Zm-71.42-94.42,73,88.52,67-24-19.39-65.5Z"/><polygon class="cls-1" points="174.2 84.44 108.69 59.34 110.47 54.67 174.2 79.08 237.93 54.67 239.72 59.34 174.2 84.44"/><polygon class="cls-1" points="345.03 188.38 290.06 154.46 277.56 96.42 282.45 95.37 294.5 151.32 347.65 184.13 345.03 188.38"/><polygon class="cls-1" points="269.9 332.28 264.94 331.6 272.57 275.31 316.05 235.17 319.44 238.84 277.29 277.76 269.9 332.28"/><rect class="cls-1" x="172.27" y="3.25" width="5" height="211.6"/><rect class="cls-1" x="171.93" y="165.46" width="190.98" height="5" transform="translate(-48.15 179.66) rotate(-34.25)"/><rect class="cls-1" x="261.63" y="190.55" width="5" height="163.49" transform="translate(-93.84 397.85) rotate(-65.2)"/><path class="cls-1" d="M166.26,225.54,0,188.19v-76L69.84,93ZM5,184.19l149.42,33.56L67.83,98.7,5,116Z"/><path class="cls-1" d="M82.23,334.82,7.44,308.07l21.79-73.65,135,1.06ZM13.57,305l67,24,73-88.53L33,239.45Z"/><polygon class="cls-1" points="3.81 188.31 1.19 184.06 54.34 151.25 66.39 95.3 71.28 96.36 58.78 154.39 3.81 188.31"/><polygon class="cls-1" points="78.94 332.21 71.56 277.69 29.4 238.78 32.79 235.1 76.27 275.24 83.9 331.54 78.94 332.21"/><rect class="cls-1" x="78.92" y="72.4" width="5" height="190.98" transform="translate(-103.17 140.66) rotate(-55.74)"/><rect class="cls-1" x="2.97" y="269.72" width="163.49" height="5" transform="translate(-106.39 60.65) rotate(-24.8)"/></g></g></svg>